<svg version="1.1" id="Layer_1" xmlns="http://www.w3.org/2000/svg" xmlns:xlink="http://www.w3.org/1999/xlink" x="0px" y="0px"
	 width="100%" viewBox="0 0 901 361" enable-background="new 0 0 901 361" xml:space="preserve">
<path fill="#FFFFFF" opacity="1.000000" stroke="none" 
	d="
M565.000000,362.000000 
	C376.666656,362.000000 188.833328,362.000000 1.000000,362.000000 
	C1.000000,241.666672 1.000000,121.333336 1.000000,1.000000 
	C301.333344,1.000000 601.666687,1.000000 902.000000,1.000000 
	C902.000000,121.333336 902.000000,241.666672 902.000000,362.000000 
	C789.833313,362.000000 677.666687,362.000000 565.000000,362.000000 
M494.977234,275.256744 
	C494.929291,274.504333 494.881317,273.751892 494.978241,272.073761 
	C495.025574,266.394958 495.072906,260.716156 495.786316,254.650757 
	C497.685547,249.709579 499.584808,244.768387 502.076996,239.344864 
	C504.059418,237.275009 506.041809,235.205170 508.761658,233.006607 
	C529.298706,221.924057 549.923828,225.415543 570.828674,232.726852 
	C570.828674,230.849838 570.828674,229.062454 570.969116,226.442673 
	C570.923889,222.295288 570.878662,218.147919 570.976135,213.204941 
	C569.640808,212.149719 568.463135,210.603638 566.945435,210.116348 
	C553.964417,205.948380 540.545227,205.462463 527.083679,206.054550 
	C517.671875,206.468506 508.466217,208.205795 499.121216,212.402924 
	C497.733551,213.230240 496.345856,214.057541 494.247528,214.994843 
	C484.733521,220.821884 477.854004,228.892181 474.274017,239.467651 
	C469.847809,252.542892 469.337555,266.123901 471.237518,279.600220 
	C472.159119,286.137024 475.277893,292.364014 477.186859,299.455719 
	C480.672150,304.346405 483.481445,309.959961 487.780487,313.980530 
	C497.367798,322.946747 509.647949,326.949951 522.380859,327.777130 
	C537.598877,328.765656 553.019287,328.987396 567.788269,323.845490 
	C569.148071,323.372070 570.778381,321.321228 570.855225,319.924286 
	C571.190979,313.822021 570.999634,307.690765 570.999634,301.489471 
	C552.394104,308.126190 539.969849,309.390900 525.190308,306.979340 
	C513.242493,305.029785 503.976898,299.219666 499.009277,287.780548 
	C497.353699,283.968170 496.210693,279.933228 494.977234,275.256744 
M813.791260,215.017426 
	C817.062439,217.047882 820.521057,218.833450 823.563416,221.162720 
	C828.955444,225.290955 834.094727,229.749420 837.701904,232.720657 
	C826.893555,193.422363 840.381531,160.815659 876.916565,136.090927 
	C857.329041,138.239685 839.326050,142.036118 821.990540,148.559525 
	C804.406433,155.176453 787.979736,163.986404 772.480103,174.716003 
	C755.629150,186.381073 734.012329,206.438843 732.488831,213.300583 
	C733.538330,212.550842 734.262085,211.972321 735.045471,211.490921 
	C735.881226,210.977325 736.752686,210.510788 737.643799,210.100098 
	C757.142273,201.114227 777.152832,199.157135 797.669373,206.105911 
	C800.628906,207.108292 803.198914,209.260559 805.154968,210.982834 
	C792.263855,206.533737 778.953979,205.094452 765.437134,206.066742 
	C754.840820,206.828934 744.531067,209.036423 735.461853,215.059341 
	C719.518066,225.647736 714.302429,241.798859 713.099365,259.654816 
	C712.223816,272.648254 713.824707,285.469177 719.021179,297.600159 
	C724.812500,311.119751 734.811584,320.345093 748.678833,324.906616 
	C762.379211,329.413239 776.606140,329.198547 790.616455,326.881195 
	C809.551086,323.749420 823.069580,313.479889 829.648438,294.865692 
	C833.476074,284.035919 832.978882,272.868805 833.010193,261.701355 
	C833.047668,248.338058 830.019104,235.874146 821.943237,225.021378 
	C819.302124,221.472076 816.024109,218.396667 813.791260,215.017426 
M453.000000,226.500427 
	C453.000000,220.071945 453.000000,213.643463 453.000000,207.364838 
	C444.608032,207.364838 436.879150,207.364838 428.707245,207.364838 
	C428.707245,219.090805 428.707245,230.455933 428.707245,241.970703 
	C417.451141,237.557739 406.294220,237.862045 395.370819,240.430969 
	C382.663574,243.419403 374.594452,251.999435 371.263275,264.560272 
	C367.924591,277.149597 368.482361,289.896515 372.207581,302.274963 
	C376.125031,315.292236 384.967163,323.769165 398.593109,325.860901 
	C406.233490,327.033783 414.148712,327.307312 421.869263,326.833038 
	C430.783478,326.285461 439.592987,324.195007 448.501617,323.322662 
	C452.721680,322.909454 453.063751,320.887939 453.053284,317.475739 
	C452.961304,287.484131 453.000000,257.492096 453.000000,226.500427 
M41.574936,322.003571 
	C43.225185,322.668915 44.864841,323.362061 46.527374,323.995148 
	C59.330872,328.870575 72.741570,328.470703 86.010590,327.822876 
	C93.735703,327.445740 101.397079,325.408508 109.027756,323.830963 
	C110.183273,323.592102 111.816116,321.821869 111.864182,320.701416 
	C112.137505,314.330292 111.996643,307.941376 111.996643,301.390442 
	C95.406998,307.704254 82.525826,309.293091 66.895187,307.077728 
	C52.485809,305.035461 39.513744,294.158722 37.963047,280.724365 
	C37.100079,273.248108 35.581161,265.626099 36.267445,258.247375 
	C37.162991,248.618713 40.672195,239.689194 49.495392,233.810959 
	C63.354412,224.577744 78.520958,224.931778 93.900879,227.534302 
	C100.284042,228.614426 106.463539,230.898193 112.997978,232.707230 
	C112.997978,226.455444 113.135704,220.463272 112.881912,214.487717 
	C112.831078,213.290802 111.479485,211.383224 110.403938,211.118500 
	C102.698418,209.221832 94.969368,206.714783 87.132744,206.218536 
	C74.684601,205.430283 62.126526,205.392715 49.870628,208.962677 
	C33.557632,213.714432 21.488272,222.844406 15.754472,239.512878 
	C11.076154,253.113007 11.374027,266.860474 12.955021,280.830048 
	C15.063636,299.461578 24.417185,313.050201 41.574936,322.003571 
M676.535583,291.043518 
	C671.670532,284.907684 667.173828,278.424957 661.824219,272.745575 
	C657.532715,268.189606 657.620667,264.929901 662.301208,261.069885 
	C664.153381,259.542480 665.419983,257.299377 666.930664,255.364563 
	C676.161987,243.541473 685.398071,231.722046 694.607788,219.882065 
	C697.757446,215.832916 700.835510,211.728043 704.440918,207.000000 
	C696.557373,207.000000 689.698303,206.441986 682.991943,207.213089 
	C679.082947,207.662521 674.220093,209.228271 671.851562,212.034698 
	C661.573364,224.213287 652.054810,237.033035 642.180847,249.721588 
	C633.788086,238.382477 625.557983,226.652100 616.597961,215.508591 
	C613.694092,211.897003 609.163635,208.143890 604.873718,207.413879 
	C597.196655,206.107468 589.137634,207.045792 580.437134,207.045792 
	C581.350403,208.429138 581.720520,209.087357 582.181946,209.673767 
	C588.132019,217.236267 594.105469,224.780365 600.052368,232.345291 
	C608.828979,243.509766 617.560120,254.710037 626.362915,265.853790 
	C639.011047,281.865509 651.515381,297.997253 664.493286,313.737946 
	C668.570435,318.683136 673.313354,324.561798 678.931458,326.392944 
	C686.592773,328.890076 695.384155,327.920319 705.186218,328.529999 
	C703.141418,325.591156 702.135925,323.998535 700.986450,322.517670 
	C692.989014,312.214630 684.961731,301.934753 676.535583,291.043518 
M252.074570,256.606171 
	C248.207886,249.651764 242.721603,244.697250 235.122620,241.919235 
	C222.752930,237.397125 210.256424,237.015091 197.561371,240.020706 
	C184.648758,243.077820 175.969391,250.746170 171.986053,263.561096 
	C168.140778,275.931885 168.180817,288.496674 171.501465,300.778931 
	C174.769836,312.867798 182.073135,321.927795 195.005600,325.016174 
	C198.783340,325.918335 202.642990,326.477448 206.464981,327.194366 
	C218.693832,329.488190 230.222641,326.974609 240.996887,321.340363 
	C247.929993,317.714783 252.415573,311.231659 254.336456,303.911163 
	C256.387177,296.095825 257.907532,287.809875 257.610046,279.805511 
	C257.327332,272.198608 254.396683,264.690155 252.074570,256.606171 
M353.998474,325.290375 
	C353.998474,296.564911 353.998474,267.839478 353.998474,239.243027 
	C345.617004,239.243027 338.009033,239.243027 330.000061,239.243027 
	C330.000061,240.773148 330.000061,242.065002 330.000061,243.356842 
	C330.000031,261.179382 330.082855,279.002899 329.875610,296.823029 
	C329.854187,298.665314 328.568695,301.211578 327.065094,302.173462 
	C323.575134,304.406006 319.743378,306.377899 315.782166,307.548859 
	C303.753906,311.104492 296.190308,306.155670 296.851074,293.608612 
	C297.524628,280.818512 297.000000,267.965302 297.000000,255.139740 
	C297.000000,249.866623 297.000000,244.593506 297.000000,239.311234 
	C288.714783,239.311234 280.989929,239.311234 274.003601,239.311234 
	C274.003601,261.348022 273.669342,283.077026 274.192474,304.785400 
	C274.365845,311.980652 277.424774,318.818573 284.071777,322.987732 
	C296.202148,330.596222 308.622284,328.272461 320.905396,323.489899 
	C325.003876,321.894104 328.763245,319.427307 332.755402,317.317566 
	C333.722473,321.064819 334.599152,324.461853 335.511932,327.998657 
	C340.841980,327.998657 345.997162,328.087250 351.143982,327.919708 
	C352.108643,327.888306 353.039948,326.832520 353.998474,325.290375 
M812.796509,65.946693 
	C796.952026,59.262714 783.479797,49.487640 773.460754,35.213840 
	C786.304688,80.341148 771.614929,113.764778 731.768616,137.088989 
	C789.917236,131.785629 838.147034,107.116310 876.852661,64.355995 
	C866.558044,66.564056 856.307190,69.512909 845.851746,70.799271 
	C834.874634,72.149834 824.036194,69.745399 812.796509,65.946693 
M130.000000,224.501266 
	C130.000000,258.888153 130.000000,293.275024 130.000000,327.697906 
	C138.276367,327.697906 145.996460,327.697906 153.723740,327.697906 
	C153.723740,287.376831 153.723740,247.358475 153.723740,207.301941 
	C145.723938,207.301941 138.003860,207.301941 130.000000,207.301941 
	C130.000000,212.901413 130.000000,218.201645 130.000000,224.501266 
M597.991516,304.517548 
	C592.190491,312.037445 586.389465,319.557312 579.880310,327.995148 
	C587.495972,327.995148 593.631592,328.291565 599.726257,327.919128 
	C607.119202,327.467316 613.149658,324.301605 617.108704,317.681488 
	C618.357910,315.592621 620.130920,313.821289 621.618835,311.870087 
	C627.202942,304.547546 632.768311,297.210663 638.244934,290.005096 
	C633.098267,283.983002 628.407837,278.494751 623.369507,272.599457 
	C619.075012,278.008301 615.010132,283.117767 610.956482,288.236176 
	C606.798584,293.486237 602.651733,298.745056 597.991516,304.517548 
M847.845642,233.370743 
	C853.463928,245.844055 868.514648,250.690552 879.729065,243.716644 
	C893.375122,235.230484 895.762695,216.514328 881.177612,205.862930 
	C872.797302,199.742737 859.556580,200.178116 851.459595,209.876129 
	C845.577576,216.921143 845.069519,224.489944 847.845642,233.370743 
z"/>
<path fill="#1C4FA3" opacity="1.000000" stroke="none" 
	d="
M813.037354,215.104553 
	C816.024109,218.396667 819.302124,221.472076 821.943237,225.021378 
	C830.019104,235.874146 833.047668,248.338058 833.010193,261.701355 
	C832.978882,272.868805 833.476074,284.035919 829.648438,294.865692 
	C823.069580,313.479889 809.551086,323.749420 790.616455,326.881195 
	C776.606140,329.198547 762.379211,329.413239 748.678833,324.906616 
	C734.811584,320.345093 724.812500,311.119751 719.021179,297.600159 
	C713.824707,285.469177 712.223816,272.648254 713.099365,259.654816 
	C714.302429,241.798859 719.518066,225.647736 735.461853,215.059341 
	C744.531067,209.036423 754.840820,206.828934 765.437134,206.066742 
	C778.953979,205.094452 792.263855,206.533737 805.900391,210.996826 
	C808.776306,212.375397 810.906799,213.739975 813.037354,215.104553 
M770.710571,226.000046 
	C768.459045,226.334808 766.183411,226.555130 763.960205,227.024109 
	C754.278076,229.066559 746.313843,233.489273 741.993286,242.973694 
	C736.358643,255.342758 735.655457,268.131561 738.657715,281.231384 
	C740.467651,289.128723 743.505432,296.132629 750.461060,301.238312 
	C759.607117,307.951813 769.978455,309.039062 780.417908,307.735291 
	C788.355469,306.743988 796.054443,303.819458 801.174561,296.530731 
	C811.060974,282.456909 810.291626,266.912506 807.516541,251.220398 
	C806.329956,244.511063 803.051514,238.571854 797.685425,233.902237 
	C790.130371,227.327759 781.100769,226.059967 770.710571,226.000046 
z"/>
<path fill="#1C4FA3" opacity="1.000000" stroke="none" 
	d="
M453.000000,227.000305 
	C453.000000,257.492096 452.961304,287.484131 453.053284,317.475739 
	C453.063751,320.887939 452.721680,322.909454 448.501617,323.322662 
	C439.592987,324.195007 430.783478,326.285461 421.869263,326.833038 
	C414.148712,327.307312 406.233490,327.033783 398.593109,325.860901 
	C384.967163,323.769165 376.125031,315.292236 372.207581,302.274963 
	C368.482361,289.896515 367.924591,277.149597 371.263275,264.560272 
	C374.594452,251.999435 382.663574,243.419403 395.370819,240.430969 
	C406.294220,237.862045 417.451141,237.557739 428.707245,241.970703 
	C428.707245,230.455933 428.707245,219.090805 428.707245,207.364838 
	C436.879150,207.364838 444.608032,207.364838 453.000000,207.364838 
	C453.000000,213.643463 453.000000,220.071945 453.000000,227.000305 
M418.000000,258.043579 
	C416.003418,258.029053 414.006836,258.000519 412.010254,258.002411 
	C402.481659,258.011353 397.042755,262.175964 393.868347,271.291534 
	C391.517792,278.041382 392.097504,284.644379 393.736908,291.363098 
	C394.950775,296.337921 396.409241,300.969421 401.074982,304.065643 
	C410.233826,310.143494 419.539307,307.785767 429.000000,305.480194 
	C429.000000,293.075165 429.000031,281.094788 429.000000,269.114410 
	C428.999969,260.634766 428.874817,260.498352 420.135071,258.943756 
	C419.680206,258.862854 419.266815,258.548737 418.000000,258.043579 
z"/>
<path fill="#1C4FA3" opacity="1.000000" stroke="none" 
	d="
M41.186302,321.976410 
	C24.417185,313.050201 15.063636,299.461578 12.955021,280.830048 
	C11.374027,266.860474 11.076154,253.113007 15.754472,239.512878 
	C21.488272,222.844406 33.557632,213.714432 49.870628,208.962677 
	C62.126526,205.392715 74.684601,205.430283 87.132744,206.218536 
	C94.969368,206.714783 102.698418,209.221832 110.403938,211.118500 
	C111.479485,211.383224 112.831078,213.290802 112.881912,214.487717 
	C113.135704,220.463272 112.997978,226.455444 112.997978,232.707230 
	C106.463539,230.898193 100.284042,228.614426 93.900879,227.534302 
	C78.520958,224.931778 63.354412,224.577744 49.495392,233.810959 
	C40.672195,239.689194 37.162991,248.618713 36.267445,258.247375 
	C35.581161,265.626099 37.100079,273.248108 37.963047,280.724365 
	C39.513744,294.158722 52.485809,305.035461 66.895187,307.077728 
	C82.525826,309.293091 95.406998,307.704254 111.996643,301.390442 
	C111.996643,307.941376 112.137505,314.330292 111.864182,320.701416 
	C111.816116,321.821869 110.183273,323.592102 109.027756,323.830963 
	C101.397079,325.408508 93.735703,327.445740 86.010590,327.822876 
	C72.741570,328.470703 59.330872,328.870575 46.527374,323.995148 
	C44.864841,323.362061 43.225185,322.668915 41.186302,321.976410 
z"/>
<path fill="#1C4FA3" opacity="1.000000" stroke="none" 
	d="
M676.739807,291.345490 
	C684.961731,301.934753 692.989014,312.214630 700.986450,322.517670 
	C702.135925,323.998535 703.141418,325.591156 705.186218,328.529999 
	C695.384155,327.920319 686.592773,328.890076 678.931458,326.392944 
	C673.313354,324.561798 668.570435,318.683136 664.493286,313.737946 
	C651.515381,297.997253 639.011047,281.865509 626.362915,265.853790 
	C617.560120,254.710037 608.828979,243.509766 600.052368,232.345291 
	C594.105469,224.780365 588.132019,217.236267 582.181946,209.673767 
	C581.720520,209.087357 581.350403,208.429138 580.437134,207.045792 
	C589.137634,207.045792 597.196655,206.107468 604.873718,207.413879 
	C609.163635,208.143890 613.694092,211.897003 616.597961,215.508591 
	C625.557983,226.652100 633.788086,238.382477 642.180847,249.721588 
	C652.054810,237.033035 661.573364,224.213287 671.851562,212.034698 
	C674.220093,209.228271 679.082947,207.662521 682.991943,207.213089 
	C689.698303,206.441986 696.557373,207.000000 704.440918,207.000000 
	C700.835510,211.728043 697.757446,215.832916 694.607788,219.882065 
	C685.398071,231.722046 676.161987,243.541473 666.930664,255.364563 
	C665.419983,257.299377 664.153381,259.542480 662.301208,261.069885 
	C657.620667,264.929901 657.532715,268.189606 661.824219,272.745575 
	C667.173828,278.424957 671.670532,284.907684 676.739807,291.345490 
z"/>
<path fill="#1C4FA3" opacity="1.000000" stroke="none" 
	d="
M252.352448,256.872284 
	C254.396683,264.690155 257.327332,272.198608 257.610046,279.805511 
	C257.907532,287.809875 256.387177,296.095825 254.336456,303.911163 
	C252.415573,311.231659 247.929993,317.714783 240.996887,321.340363 
	C230.222641,326.974609 218.693832,329.488190 206.464981,327.194366 
	C202.642990,326.477448 198.783340,325.918335 195.005600,325.016174 
	C182.073135,321.927795 174.769836,312.867798 171.501465,300.778931 
	C168.180817,288.496674 168.140778,275.931885 171.986053,263.561096 
	C175.969391,250.746170 184.648758,243.077820 197.561371,240.020706 
	C210.256424,237.015091 222.752930,237.397125 235.122620,241.919235 
	C242.721603,244.697250 248.207886,249.651764 252.352448,256.872284 
M194.002945,294.233978 
	C194.346054,295.477905 194.601013,296.754364 195.046585,297.960449 
	C197.931152,305.768402 204.253845,309.394958 211.892578,309.800476 
	C218.520432,310.152344 225.106094,308.849823 229.331070,302.335938 
	C235.435669,292.924133 234.750153,282.758667 233.066849,272.496307 
	C231.954086,265.712280 228.626190,260.575623 221.758682,257.853210 
	C213.796188,254.696671 202.114212,256.725494 198.080536,262.656158 
	C191.595367,272.191193 192.128143,282.701721 194.002945,294.233978 
z"/>
<path fill="#16B39A" opacity="1.000000" stroke="none" 
	d="
M813.414307,215.060989 
	C810.906799,213.739975 808.776306,212.375397 806.297485,210.945755 
	C803.198914,209.260559 800.628906,207.108292 797.669373,206.105911 
	C777.152832,199.157135 757.142273,201.114227 737.643799,210.100098 
	C736.752686,210.510788 735.881226,210.977325 735.045471,211.490921 
	C734.262085,211.972321 733.538330,212.550842 732.488831,213.300583 
	C734.012329,206.438843 755.629150,186.381073 772.480103,174.716003 
	C787.979736,163.986404 804.406433,155.176453 821.990540,148.559525 
	C839.326050,142.036118 857.329041,138.239685 876.916565,136.090927 
	C840.381531,160.815659 826.893555,193.422363 837.701904,232.720657 
	C834.094727,229.749420 828.955444,225.290955 823.563416,221.162720 
	C820.521057,218.833450 817.062439,217.047882 813.414307,215.060989 
z"/>
<path fill="#1C4FA3" opacity="1.000000" stroke="none" 
	d="
M353.992554,325.769897 
	C353.039948,326.832520 352.108643,327.888306 351.143982,327.919708 
	C345.997162,328.087250 340.841980,327.998657 335.511932,327.998657 
	C334.599152,324.461853 333.722473,321.064819 332.755402,317.317566 
	C328.763245,319.427307 325.003876,321.894104 320.905396,323.489899 
	C308.622284,328.272461 296.202148,330.596222 284.071777,322.987732 
	C277.424774,318.818573 274.365845,311.980652 274.192474,304.785400 
	C273.669342,283.077026 274.003601,261.348022 274.003601,239.311234 
	C280.989929,239.311234 288.714783,239.311234 297.000000,239.311234 
	C297.000000,244.593506 297.000000,249.866623 297.000000,255.139740 
	C297.000000,267.965302 297.524628,280.818512 296.851074,293.608612 
	C296.190308,306.155670 303.753906,311.104492 315.782166,307.548859 
	C319.743378,306.377899 323.575134,304.406006 327.065094,302.173462 
	C328.568695,301.211578 329.854187,298.665314 329.875610,296.823029 
	C330.082855,279.002899 330.000031,261.179382 330.000061,243.356842 
	C330.000061,242.065002 330.000061,240.773148 330.000061,239.243027 
	C338.009033,239.243027 345.617004,239.243027 353.998474,239.243027 
	C353.998474,267.839478 353.998474,296.564911 353.992554,325.769897 
z"/>
<path fill="#1C4FA3" opacity="1.000000" stroke="none" 
	d="
M813.197266,65.975525 
	C824.036194,69.745399 834.874634,72.149834 845.851746,70.799271 
	C856.307190,69.512909 866.558044,66.564056 876.852661,64.355995 
	C838.147034,107.116310 789.917236,131.785629 731.768616,137.088989 
	C771.614929,113.764778 786.304688,80.341148 773.460754,35.213840 
	C783.479797,49.487640 796.952026,59.262714 813.197266,65.975525 
z"/>
<path fill="#1C4FA3" opacity="1.000000" stroke="none" 
	d="
M508.024170,233.135330 
	C506.041809,235.205170 504.059418,237.275009 501.693298,239.107224 
	C500.437805,238.418732 498.915527,237.445312 498.793732,237.596970 
	C497.403748,239.327148 495.729980,241.079178 495.115417,243.121338 
	C494.284210,245.883514 495.315491,249.746445 493.742065,251.623627 
	C491.108887,254.765060 493.257263,254.491058 495.120239,255.037369 
	C495.072906,260.716156 495.025574,266.394958 494.575623,272.542908 
	C493.567200,273.390320 492.961426,273.768555 492.355652,274.146820 
	C493.181549,274.764587 494.007477,275.382324 494.833374,276.000061 
	C496.210693,279.933228 497.353699,283.968170 499.009277,287.780548 
	C503.976898,299.219666 513.242493,305.029785 525.190308,306.979340 
	C539.969849,309.390900 552.394104,308.126190 570.999634,301.489471 
	C570.999634,307.690765 571.190979,313.822021 570.855225,319.924286 
	C570.778381,321.321228 569.148071,323.372070 567.788269,323.845490 
	C553.019287,328.987396 537.598877,328.765656 522.380859,327.777130 
	C509.647949,326.949951 497.367798,322.946747 487.780487,313.980530 
	C483.481445,309.959961 480.672150,304.346405 477.490417,298.617065 
	C477.364929,293.192291 477.425446,288.495514 476.418274,284.040131 
	C472.901489,268.483002 474.656586,253.197739 478.672638,238.122498 
	C479.539886,234.867004 482.742554,232.183716 485.031006,229.368149 
	C488.739044,224.805969 495.005188,222.019577 494.958160,214.884857 
	C496.345856,214.057541 497.733551,213.230240 499.631439,212.689301 
	C502.162384,213.120300 504.224579,213.597336 506.196564,213.351227 
	C514.177979,212.355148 522.100159,210.771957 530.102600,210.081070 
	C543.875549,208.891953 557.384094,211.343781 570.833435,214.000534 
	C570.878662,218.147919 570.923889,222.295288 570.425720,226.777466 
	C568.252197,226.892258 566.494507,226.991714 565.012817,226.400040 
	C555.897217,222.760086 546.269043,222.435379 536.699280,222.107635 
	C532.471741,221.962845 528.195312,223.444473 523.957153,223.362228 
	C517.167603,223.230469 511.610748,225.879837 505.946594,229.456680 
	C506.760895,230.898514 507.392548,232.016922 508.024170,233.135330 
z"/>
<path fill="#1C4FA3" opacity="1.000000" stroke="none" 
	d="
M130.000000,224.001587 
	C130.000000,218.201645 130.000000,212.901413 130.000000,207.301941 
	C138.003860,207.301941 145.723938,207.301941 153.723740,207.301941 
	C153.723740,247.358475 153.723740,287.376831 153.723740,327.697906 
	C145.996460,327.697906 138.276367,327.697906 130.000000,327.697906 
	C130.000000,293.275024 130.000000,258.888153 130.000000,224.001587 
z"/>
<path fill="#16B39A" opacity="1.000000" stroke="none" 
	d="
M598.245728,304.258789 
	C602.651733,298.745056 606.798584,293.486237 610.956482,288.236176 
	C615.010132,283.117767 619.075012,278.008301 623.369507,272.599457 
	C628.407837,278.494751 633.098267,283.983002 638.244934,290.005096 
	C632.768311,297.210663 627.202942,304.547546 621.618835,311.870087 
	C620.130920,313.821289 618.357910,315.592621 617.108704,317.681488 
	C613.149658,324.301605 607.119202,327.467316 599.726257,327.919128 
	C593.631592,328.291565 587.495972,327.995148 579.880310,327.995148 
	C586.389465,319.557312 592.190491,312.037445 598.245728,304.258789 
z"/>
<path fill="#1C4FA3" opacity="1.000000" stroke="none" 
	d="
M847.569336,233.074646 
	C845.069519,224.489944 845.577576,216.921143 851.459595,209.876129 
	C859.556580,200.178116 872.797302,199.742737 881.177612,205.862930 
	C895.762695,216.514328 893.375122,235.230484 879.729065,243.716644 
	C868.514648,250.690552 853.463928,245.844055 847.569336,233.074646 
M883.638062,233.616501 
	C884.757324,230.472382 886.992310,227.259415 886.803284,224.196030 
	C885.975098,210.774460 871.698914,200.770737 858.937256,209.084076 
	C851.453064,213.959534 847.344177,222.785431 852.041443,232.033401 
	C856.628906,241.065125 866.847778,245.286636 875.697388,240.785233 
	C878.700745,239.257584 883.554993,238.269150 883.002869,233.000565 
	C883.002869,233.000565 882.951782,233.054108 883.638062,233.616501 
z"/>
<path fill="#1C4FA3" opacity="1.000000" stroke="none" 
	d="
M494.602844,214.939850 
	C495.005188,222.019577 488.739044,224.805969 485.031006,229.368149 
	C482.742554,232.183716 479.539886,234.867004 478.672638,238.122498 
	C474.656586,253.197739 472.901489,268.483002 476.418274,284.040131 
	C477.425446,288.495514 477.364929,293.192291 477.597961,298.254822 
	C475.277893,292.364014 472.159119,286.137024 471.237518,279.600220 
	C469.337555,266.123901 469.847809,252.542892 474.274017,239.467651 
	C477.854004,228.892181 484.733521,220.821884 494.602844,214.939850 
z"/>
<path fill="#1C4FA3" opacity="1.000000" stroke="none" 
	d="
M508.392914,233.070969 
	C507.392548,232.016922 506.760895,230.898514 505.946594,229.456680 
	C511.610748,225.879837 517.167603,223.230469 523.957153,223.362228 
	C528.195312,223.444473 532.471741,221.962845 536.699280,222.107635 
	C546.269043,222.435379 555.897217,222.760086 565.012817,226.400040 
	C566.494507,226.991714 568.252197,226.892258 570.355469,227.193665 
	C570.828674,229.062454 570.828674,230.849838 570.828674,232.726852 
	C549.923828,225.415543 529.298706,221.924057 508.392914,233.070969 
z"/>
<path fill="#1C4FA3" opacity="1.000000" stroke="none" 
	d="
M570.904785,213.602737 
	C557.384094,211.343781 543.875549,208.891953 530.102600,210.081070 
	C522.100159,210.771957 514.177979,212.355148 506.196564,213.351227 
	C504.224579,213.597336 502.162384,213.120300 499.973511,212.572021 
	C508.466217,208.205795 517.671875,206.468506 527.083679,206.054550 
	C540.545227,205.462463 553.964417,205.948380 566.945435,210.116348 
	C568.463135,210.603638 569.640808,212.149719 570.904785,213.602737 
z"/>
<path fill="#1C4FA3" opacity="1.000000" stroke="none" 
	d="
M495.453278,254.844055 
	C493.257263,254.491058 491.108887,254.765060 493.742065,251.623627 
	C495.315491,249.746445 494.284210,245.883514 495.115417,243.121338 
	C495.729980,241.079178 497.403748,239.327148 498.793732,237.596970 
	C498.915527,237.445312 500.437805,238.418732 501.396820,239.348389 
	C499.584808,244.768387 497.685547,249.709579 495.453278,254.844055 
z"/>
<path fill="#1C4FA3" opacity="1.000000" stroke="none" 
	d="
M494.905304,275.628418 
	C494.007477,275.382324 493.181549,274.764587 492.355652,274.146820 
	C492.961426,273.768555 493.567200,273.390320 494.503174,273.005768 
	C494.881317,273.751892 494.929291,274.504333 494.905304,275.628418 
z"/>
<path fill="#FFFFFF" opacity="1.000000" stroke="none" 
	d="
M771.175537,226.000031 
	C781.100769,226.059967 790.130371,227.327759 797.685425,233.902237 
	C803.051514,238.571854 806.329956,244.511063 807.516541,251.220398 
	C810.291626,266.912506 811.060974,282.456909 801.174561,296.530731 
	C796.054443,303.819458 788.355469,306.743988 780.417908,307.735291 
	C769.978455,309.039062 759.607117,307.951813 750.461060,301.238312 
	C743.505432,296.132629 740.467651,289.128723 738.657715,281.231384 
	C735.655457,268.131561 736.358643,255.342758 741.993286,242.973694 
	C746.313843,233.489273 754.278076,229.066559 763.960205,227.024109 
	C766.183411,226.555130 768.459045,226.334808 771.175537,226.000031 
z"/>
<path fill="#FFFFFF" opacity="1.000000" stroke="none" 
	d="
M418.417053,258.193390 
	C419.266815,258.548737 419.680206,258.862854 420.135071,258.943756 
	C428.874817,260.498352 428.999969,260.634766 429.000000,269.114410 
	C429.000031,281.094788 429.000000,293.075165 429.000000,305.480194 
	C419.539307,307.785767 410.233826,310.143494 401.074982,304.065643 
	C396.409241,300.969421 394.950775,296.337921 393.736908,291.363098 
	C392.097504,284.644379 391.517792,278.041382 393.868347,271.291534 
	C397.042755,262.175964 402.481659,258.011353 412.010254,258.002411 
	C414.006836,258.000519 416.003418,258.029053 418.417053,258.193390 
z"/>
<path fill="#FFFFFF" opacity="1.000000" stroke="none" 
	d="
M193.993866,293.802094 
	C192.128143,282.701721 191.595367,272.191193 198.080536,262.656158 
	C202.114212,256.725494 213.796188,254.696671 221.758682,257.853210 
	C228.626190,260.575623 231.954086,265.712280 233.066849,272.496307 
	C234.750153,282.758667 235.435669,292.924133 229.331070,302.335938 
	C225.106094,308.849823 218.520432,310.152344 211.892578,309.800476 
	C204.253845,309.394958 197.931152,305.768402 195.046585,297.960449 
	C194.601013,296.754364 194.346054,295.477905 193.993866,293.802094 
z"/>
<path fill="#FFFFFF" opacity="1.000000" stroke="none" 
	d="
M883.056213,232.949371 
	C883.554993,238.269150 878.700745,239.257584 875.697388,240.785233 
	C866.847778,245.286636 856.628906,241.065125 852.041443,232.033401 
	C847.344177,222.785431 851.453064,213.959534 858.937256,209.084076 
	C871.698914,200.770737 885.975098,210.774460 886.803284,224.196030 
	C886.992310,227.259415 884.757324,230.472382 883.315796,232.865204 
	C882.993591,227.480728 882.993591,222.847565 882.993591,218.168930 
	C875.807251,217.223480 877.753906,224.422729 874.298523,226.973190 
	C873.478699,224.783539 872.888977,222.586716 871.836365,220.640167 
	C871.245483,219.547592 869.926758,218.178925 868.871521,218.121628 
	C863.965698,217.855301 859.037415,218.003723 854.117126,218.003723 
	C853.970825,218.491623 853.824585,218.979538 853.678345,219.467438 
	C855.056763,220.263275 856.435242,221.059113 858.149475,222.048813 
	C858.149475,225.405457 858.149475,229.024841 858.149475,232.644211 
	C858.603394,232.913025 859.057251,233.181839 859.511169,233.450638 
	C860.340332,232.331360 861.629456,231.309555 861.892090,230.070190 
	C862.297424,228.157455 862.126648,226.086029 861.972290,224.099609 
	C861.720764,220.862671 863.227722,220.555984 866.015869,221.450241 
	C866.015869,225.237289 866.015869,228.862762 866.015869,232.677460 
	C867.493042,232.677460 868.677856,232.677460 869.837036,232.677460 
	C869.980286,231.051895 870.092957,229.773621 870.229492,228.224304 
	C871.921997,230.098526 874.169678,232.920303 874.383240,232.773911 
	C877.426514,230.688339 880.213928,233.296585 883.056213,232.949371 
z"/>
<path fill="#1C4FA3" opacity="1.000000" stroke="none" 
	d="
M883.029541,232.974976 
	C880.213928,233.296585 877.426514,230.688339 874.383240,232.773911 
	C874.169678,232.920303 871.921997,230.098526 870.229492,228.224304 
	C870.092957,229.773621 869.980286,231.051895 869.837036,232.677460 
	C868.677856,232.677460 867.493042,232.677460 866.015869,232.677460 
	C866.015869,228.862762 866.015869,225.237289 866.015869,221.450241 
	C863.227722,220.555984 861.720764,220.862671 861.972290,224.099609 
	C862.126648,226.086029 862.297424,228.157455 861.892090,230.070190 
	C861.629456,231.309555 860.340332,232.331360 859.511169,233.450638 
	C859.057251,233.181839 858.603394,232.913025 858.149475,232.644211 
	C858.149475,229.024841 858.149475,225.405457 858.149475,222.048813 
	C856.435242,221.059113 855.056763,220.263275 853.678345,219.467438 
	C853.824585,218.979538 853.970825,218.491623 854.117126,218.003723 
	C859.037415,218.003723 863.965698,217.855301 868.871521,218.121628 
	C869.926758,218.178925 871.245483,219.547592 871.836365,220.640167 
	C872.888977,222.586716 873.478699,224.783539 874.298523,226.973190 
	C877.753906,224.422729 875.807251,217.223480 882.993591,218.168930 
	C882.993591,222.847565 882.993591,227.480728 882.972656,232.584000 
	C882.951782,233.054108 883.002869,233.000565 883.029541,232.974976 
z"/>
</svg>